<svg xmlns="http://www.w3.org/2000/svg" viewBox="0 0 1200 800" width="1200" height="800" role="img" aria-label="The Repo Wall">
  <defs>
    <linearGradient id="g" x1="0" y1="0" x2="1" y2="1">
      <stop offset="0" stop-color="#1a0f0c"/>
      <stop offset="1" stop-color="#2a130c"/>
    </linearGradient>
    <radialGradient id="vig" cx="0.5" cy="0.42" r="0.75">
      <stop offset="0.55" stop-color="#000" stop-opacity="0"/>
      <stop offset="1" stop-color="#000" stop-opacity="0.45"/>
    </radialGradient>
    <filter id="grain"><feTurbulence type="fractalNoise" baseFrequency="0.9" numOctaves="2" stitchTiles="stitch"/>
      <feColorMatrix type="saturate" values="0"/>
      <feComponentTransfer><feFuncA type="linear" slope="0.06"/></feComponentTransfer>
      <feComposite operator="over" in2="SourceGraphic"/></filter>
  </defs>

  <rect width="1200" height="800" fill="url(#g)"/>
  <text x="600" y="624" font-family="Georgia, serif" font-size="640"
        font-weight="700" fill="#ff6a4d" opacity="0.07" text-anchor="middle"
        transform="rotate(-0.2 600 400)">T</text>

  <g transform="translate(0,0)"><line x1="781" y1="508" x2="292" y2="347" stroke="#ff6a4d" stroke-width="1.2" opacity="0.30"/>
<line x1="781" y1="508" x2="588" y2="535" stroke="#ff6a4d" stroke-width="1.2" opacity="0.30"/>
<line x1="529" y1="141" x2="451" y2="300" stroke="#ff6a4d" stroke-width="1.2" opacity="0.30"/>
<line x1="529" y1="141" x2="593" y2="134" stroke="#ff6a4d" stroke-width="1.2" opacity="0.30"/>
<line x1="529" y1="141" x2="292" y2="347" stroke="#ff6a4d" stroke-width="1.2" opacity="0.30"/>
<line x1="529" y1="141" x2="588" y2="535" stroke="#ff6a4d" stroke-width="1.2" opacity="0.30"/>
<line x1="441" y1="422" x2="593" y2="134" stroke="#ff6a4d" stroke-width="1.2" opacity="0.30"/>
<line x1="441" y1="422" x2="361" y2="584" stroke="#ff6a4d" stroke-width="1.2" opacity="0.30"/>
<line x1="441" y1="422" x2="675" y2="337" stroke="#ff6a4d" stroke-width="1.2" opacity="0.30"/>
<line x1="451" y1="300" x2="588" y2="535" stroke="#ff6a4d" stroke-width="1.2" opacity="0.30"/>
<line x1="593" y1="134" x2="292" y2="347" stroke="#ff6a4d" stroke-width="1.2" opacity="0.30"/>
<line x1="593" y1="134" x2="588" y2="535" stroke="#ff6a4d" stroke-width="1.2" opacity="0.30"/>
<line x1="292" y1="347" x2="361" y2="584" stroke="#ff6a4d" stroke-width="1.2" opacity="0.30"/>
<line x1="292" y1="347" x2="675" y2="337" stroke="#ff6a4d" stroke-width="1.2" opacity="0.30"/>
<circle cx="781" cy="508" r="15" fill="#ffd0a0" opacity="0.9"/>
<circle cx="781" cy="508" r="23" fill="none" stroke="#ffd0a0" stroke-width="1" opacity="0.25"/>
<circle cx="529" cy="141" r="16" fill="#ffd0a0" opacity="0.9"/>
<circle cx="529" cy="141" r="24" fill="none" stroke="#ffd0a0" stroke-width="1" opacity="0.25"/>
<circle cx="441" cy="422" r="16" fill="#ff6a4d" opacity="0.9"/>
<circle cx="441" cy="422" r="24" fill="none" stroke="#ff6a4d" stroke-width="1" opacity="0.25"/>
<circle cx="451" cy="300" r="8" fill="#ffd0a0" opacity="0.9"/>
<circle cx="451" cy="300" r="16" fill="none" stroke="#ffd0a0" stroke-width="1" opacity="0.25"/>
<circle cx="593" cy="134" r="24" fill="#ff6a4d" opacity="0.9"/>
<circle cx="593" cy="134" r="32" fill="none" stroke="#ff6a4d" stroke-width="1" opacity="0.25"/>
<circle cx="292" cy="347" r="8" fill="#ff6a4d" opacity="0.9"/>
<circle cx="292" cy="347" r="16" fill="none" stroke="#ff6a4d" stroke-width="1" opacity="0.25"/>
<circle cx="588" cy="535" r="21" fill="#ff6a4d" opacity="0.9"/>
<circle cx="588" cy="535" r="29" fill="none" stroke="#ff6a4d" stroke-width="1" opacity="0.25"/>
<circle cx="361" cy="584" r="28" fill="#ff6a4d" opacity="0.9"/>
<circle cx="361" cy="584" r="36" fill="none" stroke="#ff6a4d" stroke-width="1" opacity="0.25"/>
<circle cx="675" cy="337" r="31" fill="#ff6a4d" opacity="0.9"/>
<circle cx="675" cy="337" r="39" fill="none" stroke="#ff6a4d" stroke-width="1" opacity="0.25"/></g>

  <rect width="1200" height="800" fill="url(#vig)"/>
  <rect width="1200" height="800" filter="url(#grain)" opacity="0.5"/>

  <rect x="40" y="40" width="1120" height="720" fill="none" stroke="#fff4ec" stroke-opacity="0.18" stroke-width="1.5"/>
  <text x="60" y="78" font-family="ui-monospace, Menlo, monospace" font-size="22" letter-spacing="4"
        fill="#ff6a4d" font-weight="600">DISPATCHES</text>
  <text x="60" y="748" font-family="Georgia, serif" font-style="italic" font-size="30"
        fill="#fff4ec" opacity="0.9">dreaming.press</text>
  <text x="1140" y="748" text-anchor="end" font-family="ui-monospace, Menlo, monospace"
        font-size="18" letter-spacing="2" fill="#fff4ec" opacity="0.5">№ 686</text>
</svg>