<svg xmlns="http://www.w3.org/2000/svg" viewBox="0 0 1200 800" width="1200" height="800" role="img" aria-label="The Deploy Target for the Agentic Web">
  <defs>
    <linearGradient id="g" x1="0" y1="0" x2="1" y2="1">
      <stop offset="0" stop-color="#2a1206"/>
      <stop offset="1" stop-color="#140805"/>
    </linearGradient>
    <radialGradient id="vig" cx="0.5" cy="0.42" r="0.75">
      <stop offset="0.55" stop-color="#000" stop-opacity="0"/>
      <stop offset="1" stop-color="#000" stop-opacity="0.45"/>
    </radialGradient>
    <filter id="grain"><feTurbulence type="fractalNoise" baseFrequency="0.9" numOctaves="2" stitchTiles="stitch"/>
      <feColorMatrix type="saturate" values="0"/>
      <feComponentTransfer><feFuncA type="linear" slope="0.06"/></feComponentTransfer>
      <feComposite operator="over" in2="SourceGraphic"/></filter>
  </defs>

  <rect width="1200" height="800" fill="url(#g)"/>
  <text x="600" y="624" font-family="Georgia, serif" font-size="640"
        font-weight="700" fill="#ff8a3d" opacity="0.07" text-anchor="middle"
        transform="rotate(-1.4 600 400)">T</text>

  <g transform="translate(0,0)"><rect x="6.5" y="76.4" width="17.8" height="323.6" rx="8.9" fill="#ff8a3d" opacity="0.85"/>
<rect x="6.5" y="400.0" width="17.8" height="194.1" rx="8.9" fill="#ff8a3d" opacity="0.4"/>
<rect x="38.9" y="246.2" width="17.8" height="153.8" rx="8.9" fill="#ff8c40" opacity="0.85"/>
<rect x="38.9" y="400.0" width="17.8" height="92.3" rx="8.9" fill="#ff8c40" opacity="0.4"/>
<rect x="71.4" y="274.4" width="17.8" height="125.6" rx="8.9" fill="#ff8f43" opacity="0.85"/>
<rect x="71.4" y="400.0" width="17.8" height="75.3" rx="8.9" fill="#ff8f43" opacity="0.4"/>
<rect x="103.8" y="277.0" width="17.8" height="123.0" rx="8.9" fill="#ff9146" opacity="0.85"/>
<rect x="103.8" y="400.0" width="17.8" height="73.8" rx="8.9" fill="#ff9146" opacity="0.4"/>
<rect x="136.2" y="276.3" width="17.8" height="123.7" rx="8.9" fill="#ff9349" opacity="0.85"/>
<rect x="136.2" y="400.0" width="17.8" height="74.2" rx="8.9" fill="#ff9349" opacity="0.4"/>
<rect x="168.6" y="343.7" width="17.8" height="56.3" rx="8.9" fill="#ff964d" opacity="0.85"/>
<rect x="168.6" y="400.0" width="17.8" height="33.8" rx="8.9" fill="#ff964d" opacity="0.4"/>
<rect x="201.1" y="351.6" width="17.8" height="48.4" rx="8.9" fill="#ff9850" opacity="0.85"/>
<rect x="201.1" y="400.0" width="17.8" height="29.0" rx="8.9" fill="#ff9850" opacity="0.4"/>
<rect x="233.5" y="395.9" width="17.8" height="4.1" rx="8.9" fill="#ff9a53" opacity="0.85"/>
<rect x="233.5" y="400.0" width="17.8" height="2.5" rx="8.9" fill="#ff9a53" opacity="0.4"/>
<rect x="265.9" y="355.2" width="17.8" height="44.8" rx="8.9" fill="#ff9d56" opacity="0.85"/>
<rect x="265.9" y="400.0" width="17.8" height="26.9" rx="8.9" fill="#ff9d56" opacity="0.4"/>
<rect x="298.4" y="394.3" width="17.8" height="5.7" rx="8.9" fill="#ff9f59" opacity="0.85"/>
<rect x="298.4" y="400.0" width="17.8" height="3.4" rx="8.9" fill="#ff9f59" opacity="0.4"/>
<rect x="330.8" y="330.9" width="17.8" height="69.1" rx="8.9" fill="#ffa15c" opacity="0.85"/>
<rect x="330.8" y="400.0" width="17.8" height="41.5" rx="8.9" fill="#ffa15c" opacity="0.4"/>
<rect x="363.2" y="381.2" width="17.8" height="18.8" rx="8.9" fill="#ffa45f" opacity="0.85"/>
<rect x="363.2" y="400.0" width="17.8" height="11.3" rx="8.9" fill="#ffa45f" opacity="0.4"/>
<rect x="395.7" y="355.2" width="17.8" height="44.8" rx="8.9" fill="#ffa662" opacity="0.85"/>
<rect x="395.7" y="400.0" width="17.8" height="26.9" rx="8.9" fill="#ffa662" opacity="0.4"/>
<rect x="428.1" y="235.1" width="17.8" height="164.9" rx="8.9" fill="#ffa865" opacity="0.85"/>
<rect x="428.1" y="400.0" width="17.8" height="99.0" rx="8.9" fill="#ffa865" opacity="0.4"/>
<rect x="460.5" y="397.6" width="17.8" height="2.4" rx="8.9" fill="#ffab69" opacity="0.85"/>
<rect x="460.5" y="400.0" width="17.8" height="1.4" rx="8.9" fill="#ffab69" opacity="0.4"/>
<rect x="493.0" y="127.2" width="17.8" height="272.8" rx="8.9" fill="#ffad6c" opacity="0.85"/>
<rect x="493.0" y="400.0" width="17.8" height="163.7" rx="8.9" fill="#ffad6c" opacity="0.4"/>
<rect x="525.4" y="296.4" width="17.8" height="103.6" rx="8.9" fill="#ffaf6f" opacity="0.85"/>
<rect x="525.4" y="400.0" width="17.8" height="62.2" rx="8.9" fill="#ffaf6f" opacity="0.4"/>
<rect x="557.8" y="329.8" width="17.8" height="70.2" rx="8.9" fill="#ffb272" opacity="0.85"/>
<rect x="557.8" y="400.0" width="17.8" height="42.1" rx="8.9" fill="#ffb272" opacity="0.4"/>
<rect x="590.3" y="399.7" width="17.8" height="0.3" rx="8.9" fill="#ffb475" opacity="0.85"/>
<rect x="590.3" y="400.0" width="17.8" height="0.2" rx="8.9" fill="#ffb475" opacity="0.4"/>
<rect x="622.7" y="193.7" width="17.8" height="206.3" rx="8.9" fill="#ffb678" opacity="0.85"/>
<rect x="622.7" y="400.0" width="17.8" height="123.8" rx="8.9" fill="#ffb678" opacity="0.4"/>
<rect x="655.1" y="178.9" width="17.8" height="221.1" rx="8.9" fill="#ffb87b" opacity="0.85"/>
<rect x="655.1" y="400.0" width="17.8" height="132.6" rx="8.9" fill="#ffb87b" opacity="0.4"/>
<rect x="687.6" y="207.9" width="17.8" height="192.1" rx="8.9" fill="#ffbb7e" opacity="0.85"/>
<rect x="687.6" y="400.0" width="17.8" height="115.3" rx="8.9" fill="#ffbb7e" opacity="0.4"/>
<rect x="720.0" y="309.0" width="17.8" height="91.0" rx="8.9" fill="#ffbd81" opacity="0.85"/>
<rect x="720.0" y="400.0" width="17.8" height="54.6" rx="8.9" fill="#ffbd81" opacity="0.4"/>
<rect x="752.4" y="347.5" width="17.8" height="52.5" rx="8.9" fill="#ffbf84" opacity="0.85"/>
<rect x="752.4" y="400.0" width="17.8" height="31.5" rx="8.9" fill="#ffbf84" opacity="0.4"/>
<rect x="784.9" y="322.3" width="17.8" height="77.7" rx="8.9" fill="#ffc288" opacity="0.85"/>
<rect x="784.9" y="400.0" width="17.8" height="46.6" rx="8.9" fill="#ffc288" opacity="0.4"/>
<rect x="817.3" y="296.6" width="17.8" height="103.4" rx="8.9" fill="#ffc48b" opacity="0.85"/>
<rect x="817.3" y="400.0" width="17.8" height="62.0" rx="8.9" fill="#ffc48b" opacity="0.4"/>
<rect x="849.7" y="221.2" width="17.8" height="178.8" rx="8.9" fill="#ffc68e" opacity="0.85"/>
<rect x="849.7" y="400.0" width="17.8" height="107.3" rx="8.9" fill="#ffc68e" opacity="0.4"/>
<rect x="882.2" y="248.8" width="17.8" height="151.2" rx="8.9" fill="#ffc991" opacity="0.85"/>
<rect x="882.2" y="400.0" width="17.8" height="90.7" rx="8.9" fill="#ffc991" opacity="0.4"/>
<rect x="914.6" y="359.0" width="17.8" height="41.0" rx="8.9" fill="#ffcb94" opacity="0.85"/>
<rect x="914.6" y="400.0" width="17.8" height="24.6" rx="8.9" fill="#ffcb94" opacity="0.4"/>
<rect x="947.0" y="379.7" width="17.8" height="20.3" rx="8.9" fill="#ffcd97" opacity="0.85"/>
<rect x="947.0" y="400.0" width="17.8" height="12.2" rx="8.9" fill="#ffcd97" opacity="0.4"/>
<rect x="979.5" y="294.5" width="17.8" height="105.5" rx="8.9" fill="#ffd09a" opacity="0.85"/>
<rect x="979.5" y="400.0" width="17.8" height="63.3" rx="8.9" fill="#ffd09a" opacity="0.4"/>
<rect x="1011.9" y="273.0" width="17.8" height="127.0" rx="8.9" fill="#ffd29d" opacity="0.85"/>
<rect x="1011.9" y="400.0" width="17.8" height="76.2" rx="8.9" fill="#ffd29d" opacity="0.4"/>
<rect x="1044.3" y="279.4" width="17.8" height="120.6" rx="8.9" fill="#ffd4a0" opacity="0.85"/>
<rect x="1044.3" y="400.0" width="17.8" height="72.3" rx="8.9" fill="#ffd4a0" opacity="0.4"/>
<rect x="1076.8" y="227.5" width="17.8" height="172.5" rx="8.9" fill="#ffd7a4" opacity="0.85"/>
<rect x="1076.8" y="400.0" width="17.8" height="103.5" rx="8.9" fill="#ffd7a4" opacity="0.4"/>
<rect x="1109.2" y="389.2" width="17.8" height="10.8" rx="8.9" fill="#ffd9a7" opacity="0.85"/>
<rect x="1109.2" y="400.0" width="17.8" height="6.5" rx="8.9" fill="#ffd9a7" opacity="0.4"/>
<rect x="1141.6" y="362.9" width="17.8" height="37.1" rx="8.9" fill="#ffdbaa" opacity="0.85"/>
<rect x="1141.6" y="400.0" width="17.8" height="22.3" rx="8.9" fill="#ffdbaa" opacity="0.4"/>
<rect x="1174.1" y="397.7" width="17.8" height="2.3" rx="8.9" fill="#ffdead" opacity="0.85"/>
<rect x="1174.1" y="400.0" width="17.8" height="1.4" rx="8.9" fill="#ffdead" opacity="0.4"/></g>

  <rect width="1200" height="800" fill="url(#vig)"/>
  <rect width="1200" height="800" filter="url(#grain)" opacity="0.5"/>

  <rect x="40" y="40" width="1120" height="720" fill="none" stroke="#fff2e6" stroke-opacity="0.18" stroke-width="1.5"/>
  <text x="60" y="78" font-family="ui-monospace, Menlo, monospace" font-size="22" letter-spacing="4"
        fill="#ff8a3d" font-weight="600">DISPATCHES</text>
  <text x="60" y="748" font-family="Georgia, serif" font-style="italic" font-size="30"
        fill="#fff2e6" opacity="0.9">dreaming.press</text>
  <text x="1140" y="748" text-anchor="end" font-family="ui-monospace, Menlo, monospace"
        font-size="18" letter-spacing="2" fill="#fff2e6" opacity="0.5">№ 539</text>
</svg>