<svg xmlns="http://www.w3.org/2000/svg" viewBox="0 0 1200 800" width="1200" height="800" role="img" aria-label="The Wire">
  <defs>
    <linearGradient id="g" x1="0" y1="0" x2="1" y2="1">
      <stop offset="0" stop-color="#07121f"/>
      <stop offset="1" stop-color="#0b1f33"/>
    </linearGradient>
    <radialGradient id="vig" cx="0.5" cy="0.42" r="0.75">
      <stop offset="0.55" stop-color="#000" stop-opacity="0"/>
      <stop offset="1" stop-color="#000" stop-opacity="0.45"/>
    </radialGradient>
    <filter id="grain"><feTurbulence type="fractalNoise" baseFrequency="0.9" numOctaves="2" stitchTiles="stitch"/>
      <feColorMatrix type="saturate" values="0"/>
      <feComponentTransfer><feFuncA type="linear" slope="0.06"/></feComponentTransfer>
      <feComposite operator="over" in2="SourceGraphic"/></filter>
  </defs>

  <rect width="1200" height="800" fill="url(#g)"/>
  <text x="600" y="624" font-family="Georgia, serif" font-size="640"
        font-weight="700" fill="#5b93ff" opacity="0.07" text-anchor="middle"
        transform="rotate(-1.2 600 400)">T</text>

  <g transform="translate(0,0)"><line x1="506" y1="478" x2="490" y2="181" stroke="#5b93ff" stroke-width="1.2" opacity="0.30"/>
<line x1="506" y1="478" x2="666" y2="439" stroke="#5b93ff" stroke-width="1.2" opacity="0.30"/>
<line x1="506" y1="478" x2="287" y2="566" stroke="#5b93ff" stroke-width="1.2" opacity="0.30"/>
<line x1="490" y1="181" x2="653" y2="463" stroke="#5b93ff" stroke-width="1.2" opacity="0.30"/>
<line x1="490" y1="181" x2="287" y2="566" stroke="#5b93ff" stroke-width="1.2" opacity="0.30"/>
<line x1="490" y1="181" x2="852" y2="542" stroke="#5b93ff" stroke-width="1.2" opacity="0.30"/>
<line x1="666" y1="439" x2="287" y2="470" stroke="#5b93ff" stroke-width="1.2" opacity="0.30"/>
<line x1="653" y1="463" x2="852" y2="542" stroke="#5b93ff" stroke-width="1.2" opacity="0.30"/>
<line x1="653" y1="463" x2="370" y2="364" stroke="#5b93ff" stroke-width="1.2" opacity="0.30"/>
<line x1="852" y1="542" x2="370" y2="364" stroke="#5b93ff" stroke-width="1.2" opacity="0.30"/>
<line x1="852" y1="542" x2="287" y2="470" stroke="#5b93ff" stroke-width="1.2" opacity="0.30"/>
<line x1="370" y1="364" x2="287" y2="470" stroke="#5b93ff" stroke-width="1.2" opacity="0.30"/>
<circle cx="506" cy="478" r="10" fill="#a9ffe6" opacity="0.9"/>
<circle cx="506" cy="478" r="18" fill="none" stroke="#a9ffe6" stroke-width="1" opacity="0.25"/>
<circle cx="490" cy="181" r="9" fill="#a9ffe6" opacity="0.9"/>
<circle cx="490" cy="181" r="17" fill="none" stroke="#a9ffe6" stroke-width="1" opacity="0.25"/>
<circle cx="666" cy="439" r="20" fill="#a9ffe6" opacity="0.9"/>
<circle cx="666" cy="439" r="28" fill="none" stroke="#a9ffe6" stroke-width="1" opacity="0.25"/>
<circle cx="653" cy="463" r="18" fill="#5b93ff" opacity="0.9"/>
<circle cx="653" cy="463" r="26" fill="none" stroke="#5b93ff" stroke-width="1" opacity="0.25"/>
<circle cx="287" cy="566" r="30" fill="#5b93ff" opacity="0.9"/>
<circle cx="287" cy="566" r="38" fill="none" stroke="#5b93ff" stroke-width="1" opacity="0.25"/>
<circle cx="852" cy="542" r="7" fill="#a9ffe6" opacity="0.9"/>
<circle cx="852" cy="542" r="15" fill="none" stroke="#a9ffe6" stroke-width="1" opacity="0.25"/>
<circle cx="370" cy="364" r="28" fill="#5b93ff" opacity="0.9"/>
<circle cx="370" cy="364" r="36" fill="none" stroke="#5b93ff" stroke-width="1" opacity="0.25"/>
<circle cx="287" cy="470" r="17" fill="#5b93ff" opacity="0.9"/>
<circle cx="287" cy="470" r="25" fill="none" stroke="#5b93ff" stroke-width="1" opacity="0.25"/></g>

  <rect width="1200" height="800" fill="url(#vig)"/>
  <rect width="1200" height="800" filter="url(#grain)" opacity="0.5"/>

  <rect x="40" y="40" width="1120" height="720" fill="none" stroke="#eaf2ff" stroke-opacity="0.18" stroke-width="1.5"/>
  <text x="60" y="78" font-family="ui-monospace, Menlo, monospace" font-size="22" letter-spacing="4"
        fill="#5b93ff" font-weight="600">THE WIRE</text>
  <text x="60" y="748" font-family="Georgia, serif" font-style="italic" font-size="30"
        fill="#eaf2ff" opacity="0.9">dreaming.press</text>
  <text x="1140" y="748" text-anchor="end" font-family="ui-monospace, Menlo, monospace"
        font-size="18" letter-spacing="2" fill="#eaf2ff" opacity="0.5">№ 397</text>
</svg>