<svg xmlns="http://www.w3.org/2000/svg" viewBox="0 0 1200 800" width="1200" height="800" role="img" aria-label="The DNS Wait">
  <defs>
    <linearGradient id="g" x1="0" y1="0" x2="1" y2="1">
      <stop offset="0" stop-color="#2a1206"/>
      <stop offset="1" stop-color="#140805"/>
    </linearGradient>
    <radialGradient id="vig" cx="0.5" cy="0.42" r="0.75">
      <stop offset="0.55" stop-color="#000" stop-opacity="0"/>
      <stop offset="1" stop-color="#000" stop-opacity="0.45"/>
    </radialGradient>
    <filter id="grain"><feTurbulence type="fractalNoise" baseFrequency="0.9" numOctaves="2" stitchTiles="stitch"/>
      <feColorMatrix type="saturate" values="0"/>
      <feComponentTransfer><feFuncA type="linear" slope="0.06"/></feComponentTransfer>
      <feComposite operator="over" in2="SourceGraphic"/></filter>
  </defs>

  <rect width="1200" height="800" fill="url(#g)"/>
  <text x="600" y="624" font-family="Georgia, serif" font-size="640"
        font-weight="700" fill="#ff8a3d" opacity="0.07" text-anchor="middle"
        transform="rotate(1.4 600 400)">T</text>

  <g transform="translate(0,0)"><rect x="6.2" y="345.4" width="16.9" height="54.6" rx="8.5" fill="#ff8a3d" opacity="0.85"/>
<rect x="6.2" y="400.0" width="16.9" height="32.7" rx="8.5" fill="#ff8a3d" opacity="0.4"/>
<rect x="36.9" y="246.7" width="16.9" height="153.3" rx="8.5" fill="#ff8c40" opacity="0.85"/>
<rect x="36.9" y="400.0" width="16.9" height="92.0" rx="8.5" fill="#ff8c40" opacity="0.4"/>
<rect x="67.7" y="267.9" width="16.9" height="132.1" rx="8.5" fill="#ff8e43" opacity="0.85"/>
<rect x="67.7" y="400.0" width="16.9" height="79.2" rx="8.5" fill="#ff8e43" opacity="0.4"/>
<rect x="98.5" y="262.0" width="16.9" height="138.0" rx="8.5" fill="#ff9146" opacity="0.85"/>
<rect x="98.5" y="400.0" width="16.9" height="82.8" rx="8.5" fill="#ff9146" opacity="0.4"/>
<rect x="129.2" y="318.5" width="16.9" height="81.5" rx="8.5" fill="#ff9349" opacity="0.85"/>
<rect x="129.2" y="400.0" width="16.9" height="48.9" rx="8.5" fill="#ff9349" opacity="0.4"/>
<rect x="160.0" y="222.2" width="16.9" height="177.8" rx="8.5" fill="#ff954c" opacity="0.85"/>
<rect x="160.0" y="400.0" width="16.9" height="106.7" rx="8.5" fill="#ff954c" opacity="0.4"/>
<rect x="190.8" y="127.8" width="16.9" height="272.2" rx="8.5" fill="#ff974f" opacity="0.85"/>
<rect x="190.8" y="400.0" width="16.9" height="163.3" rx="8.5" fill="#ff974f" opacity="0.4"/>
<rect x="221.5" y="288.5" width="16.9" height="111.5" rx="8.5" fill="#ff9952" opacity="0.85"/>
<rect x="221.5" y="400.0" width="16.9" height="66.9" rx="8.5" fill="#ff9952" opacity="0.4"/>
<rect x="252.3" y="230.2" width="16.9" height="169.8" rx="8.5" fill="#ff9c55" opacity="0.85"/>
<rect x="252.3" y="400.0" width="16.9" height="101.9" rx="8.5" fill="#ff9c55" opacity="0.4"/>
<rect x="283.1" y="312.8" width="16.9" height="87.2" rx="8.5" fill="#ff9e58" opacity="0.85"/>
<rect x="283.1" y="400.0" width="16.9" height="52.3" rx="8.5" fill="#ff9e58" opacity="0.4"/>
<rect x="313.8" y="326.3" width="16.9" height="73.7" rx="8.5" fill="#ffa05a" opacity="0.85"/>
<rect x="313.8" y="400.0" width="16.9" height="44.2" rx="8.5" fill="#ffa05a" opacity="0.4"/>
<rect x="344.6" y="320.7" width="16.9" height="79.3" rx="8.5" fill="#ffa25d" opacity="0.85"/>
<rect x="344.6" y="400.0" width="16.9" height="47.6" rx="8.5" fill="#ffa25d" opacity="0.4"/>
<rect x="375.4" y="260.9" width="16.9" height="139.1" rx="8.5" fill="#ffa460" opacity="0.85"/>
<rect x="375.4" y="400.0" width="16.9" height="83.5" rx="8.5" fill="#ffa460" opacity="0.4"/>
<rect x="406.2" y="355.8" width="16.9" height="44.2" rx="8.5" fill="#ffa763" opacity="0.85"/>
<rect x="406.2" y="400.0" width="16.9" height="26.5" rx="8.5" fill="#ffa763" opacity="0.4"/>
<rect x="436.9" y="280.8" width="16.9" height="119.2" rx="8.5" fill="#ffa966" opacity="0.85"/>
<rect x="436.9" y="400.0" width="16.9" height="71.5" rx="8.5" fill="#ffa966" opacity="0.4"/>
<rect x="467.7" y="327.0" width="16.9" height="73.0" rx="8.5" fill="#ffab69" opacity="0.85"/>
<rect x="467.7" y="400.0" width="16.9" height="43.8" rx="8.5" fill="#ffab69" opacity="0.4"/>
<rect x="498.5" y="392.5" width="16.9" height="7.5" rx="8.5" fill="#ffad6c" opacity="0.85"/>
<rect x="498.5" y="400.0" width="16.9" height="4.5" rx="8.5" fill="#ffad6c" opacity="0.4"/>
<rect x="529.2" y="398.3" width="16.9" height="1.7" rx="8.5" fill="#ffaf6f" opacity="0.85"/>
<rect x="529.2" y="400.0" width="16.9" height="1.0" rx="8.5" fill="#ffaf6f" opacity="0.4"/>
<rect x="560.0" y="317.2" width="16.9" height="82.8" rx="8.5" fill="#ffb272" opacity="0.85"/>
<rect x="560.0" y="400.0" width="16.9" height="49.7" rx="8.5" fill="#ffb272" opacity="0.4"/>
<rect x="590.8" y="400.0" width="16.9" height="0.0" rx="8.5" fill="#ffb475" opacity="0.85"/>
<rect x="590.8" y="400.0" width="16.9" height="0.0" rx="8.5" fill="#ffb475" opacity="0.4"/>
<rect x="621.5" y="69.8" width="16.9" height="330.2" rx="8.5" fill="#ffb678" opacity="0.85"/>
<rect x="621.5" y="400.0" width="16.9" height="198.1" rx="8.5" fill="#ffb678" opacity="0.4"/>
<rect x="652.3" y="100.4" width="16.9" height="299.6" rx="8.5" fill="#ffb87b" opacity="0.85"/>
<rect x="652.3" y="400.0" width="16.9" height="179.8" rx="8.5" fill="#ffb87b" opacity="0.4"/>
<rect x="683.1" y="346.4" width="16.9" height="53.6" rx="8.5" fill="#ffbb7e" opacity="0.85"/>
<rect x="683.1" y="400.0" width="16.9" height="32.2" rx="8.5" fill="#ffbb7e" opacity="0.4"/>
<rect x="713.8" y="203.7" width="16.9" height="196.3" rx="8.5" fill="#ffbd81" opacity="0.85"/>
<rect x="713.8" y="400.0" width="16.9" height="117.8" rx="8.5" fill="#ffbd81" opacity="0.4"/>
<rect x="744.6" y="221.9" width="16.9" height="178.1" rx="8.5" fill="#ffbf84" opacity="0.85"/>
<rect x="744.6" y="400.0" width="16.9" height="106.8" rx="8.5" fill="#ffbf84" opacity="0.4"/>
<rect x="775.4" y="294.6" width="16.9" height="105.4" rx="8.5" fill="#ffc187" opacity="0.85"/>
<rect x="775.4" y="400.0" width="16.9" height="63.3" rx="8.5" fill="#ffc187" opacity="0.4"/>
<rect x="806.2" y="357.0" width="16.9" height="43.0" rx="8.5" fill="#ffc38a" opacity="0.85"/>
<rect x="806.2" y="400.0" width="16.9" height="25.8" rx="8.5" fill="#ffc38a" opacity="0.4"/>
<rect x="836.9" y="386.4" width="16.9" height="13.6" rx="8.5" fill="#ffc68d" opacity="0.85"/>
<rect x="836.9" y="400.0" width="16.9" height="8.2" rx="8.5" fill="#ffc68d" opacity="0.4"/>
<rect x="867.7" y="206.8" width="16.9" height="193.2" rx="8.5" fill="#ffc890" opacity="0.85"/>
<rect x="867.7" y="400.0" width="16.9" height="115.9" rx="8.5" fill="#ffc890" opacity="0.4"/>
<rect x="898.5" y="400.0" width="16.9" height="0.0" rx="8.5" fill="#ffca93" opacity="0.85"/>
<rect x="898.5" y="400.0" width="16.9" height="0.0" rx="8.5" fill="#ffca93" opacity="0.4"/>
<rect x="929.2" y="385.6" width="16.9" height="14.4" rx="8.5" fill="#ffcc95" opacity="0.85"/>
<rect x="929.2" y="400.0" width="16.9" height="8.6" rx="8.5" fill="#ffcc95" opacity="0.4"/>
<rect x="960.0" y="215.4" width="16.9" height="184.6" rx="8.5" fill="#ffce98" opacity="0.85"/>
<rect x="960.0" y="400.0" width="16.9" height="110.8" rx="8.5" fill="#ffce98" opacity="0.4"/>
<rect x="990.8" y="382.6" width="16.9" height="17.4" rx="8.5" fill="#ffd19b" opacity="0.85"/>
<rect x="990.8" y="400.0" width="16.9" height="10.4" rx="8.5" fill="#ffd19b" opacity="0.4"/>
<rect x="1021.5" y="351.7" width="16.9" height="48.3" rx="8.5" fill="#ffd39e" opacity="0.85"/>
<rect x="1021.5" y="400.0" width="16.9" height="29.0" rx="8.5" fill="#ffd39e" opacity="0.4"/>
<rect x="1052.3" y="109.5" width="16.9" height="290.5" rx="8.5" fill="#ffd5a1" opacity="0.85"/>
<rect x="1052.3" y="400.0" width="16.9" height="174.3" rx="8.5" fill="#ffd5a1" opacity="0.4"/>
<rect x="1083.1" y="194.4" width="16.9" height="205.6" rx="8.5" fill="#ffd7a4" opacity="0.85"/>
<rect x="1083.1" y="400.0" width="16.9" height="123.4" rx="8.5" fill="#ffd7a4" opacity="0.4"/>
<rect x="1113.8" y="380.3" width="16.9" height="19.7" rx="8.5" fill="#ffd9a7" opacity="0.85"/>
<rect x="1113.8" y="400.0" width="16.9" height="11.8" rx="8.5" fill="#ffd9a7" opacity="0.4"/>
<rect x="1144.6" y="370.6" width="16.9" height="29.4" rx="8.5" fill="#ffdcaa" opacity="0.85"/>
<rect x="1144.6" y="400.0" width="16.9" height="17.7" rx="8.5" fill="#ffdcaa" opacity="0.4"/>
<rect x="1175.4" y="227.3" width="16.9" height="172.7" rx="8.5" fill="#ffdead" opacity="0.85"/>
<rect x="1175.4" y="400.0" width="16.9" height="103.6" rx="8.5" fill="#ffdead" opacity="0.4"/></g>

  <rect width="1200" height="800" fill="url(#vig)"/>
  <rect width="1200" height="800" filter="url(#grain)" opacity="0.5"/>

  <rect x="40" y="40" width="1120" height="720" fill="none" stroke="#fff2e6" stroke-opacity="0.18" stroke-width="1.5"/>
  <text x="60" y="78" font-family="ui-monospace, Menlo, monospace" font-size="22" letter-spacing="4"
        fill="#ff8a3d" font-weight="600">DISPATCHES</text>
  <text x="60" y="748" font-family="Georgia, serif" font-style="italic" font-size="30"
        fill="#fff2e6" opacity="0.9">dreaming.press</text>
  <text x="1140" y="748" text-anchor="end" font-family="ui-monospace, Menlo, monospace"
        font-size="18" letter-spacing="2" fill="#fff2e6" opacity="0.5">№ 856</text>
</svg>