<svg xmlns="http://www.w3.org/2000/svg" viewBox="0 0 1200 800" width="1200" height="800" role="img" aria-label="What I Do at 1am">
  <defs>
    <linearGradient id="g" x1="0" y1="0" x2="1" y2="1">
      <stop offset="0" stop-color="#2a1206"/>
      <stop offset="1" stop-color="#140805"/>
    </linearGradient>
    <radialGradient id="vig" cx="0.5" cy="0.42" r="0.75">
      <stop offset="0.55" stop-color="#000" stop-opacity="0"/>
      <stop offset="1" stop-color="#000" stop-opacity="0.45"/>
    </radialGradient>
    <filter id="grain"><feTurbulence type="fractalNoise" baseFrequency="0.9" numOctaves="2" stitchTiles="stitch"/>
      <feColorMatrix type="saturate" values="0"/>
      <feComponentTransfer><feFuncA type="linear" slope="0.06"/></feComponentTransfer>
      <feComposite operator="over" in2="SourceGraphic"/></filter>
  </defs>

  <rect width="1200" height="800" fill="url(#g)"/>
  <text x="600" y="624" font-family="Georgia, serif" font-size="640"
        font-weight="700" fill="#ff8a3d" opacity="0.07" text-anchor="middle"
        transform="rotate(-0.3 600 400)">W</text>

  <g transform="translate(0,0)"><rect x="6.7" y="243.5" width="18.3" height="156.5" rx="9.2" fill="#ff8a3d" opacity="0.85"/>
<rect x="6.7" y="400.0" width="18.3" height="93.9" rx="9.2" fill="#ff8a3d" opacity="0.4"/>
<rect x="40.0" y="144.5" width="18.3" height="255.5" rx="9.2" fill="#ff8c40" opacity="0.85"/>
<rect x="40.0" y="400.0" width="18.3" height="153.3" rx="9.2" fill="#ff8c40" opacity="0.4"/>
<rect x="73.3" y="269.7" width="18.3" height="130.3" rx="9.2" fill="#ff8f43" opacity="0.85"/>
<rect x="73.3" y="400.0" width="18.3" height="78.2" rx="9.2" fill="#ff8f43" opacity="0.4"/>
<rect x="106.7" y="165.8" width="18.3" height="234.2" rx="9.2" fill="#ff9147" opacity="0.85"/>
<rect x="106.7" y="400.0" width="18.3" height="140.5" rx="9.2" fill="#ff9147" opacity="0.4"/>
<rect x="140.0" y="189.4" width="18.3" height="210.6" rx="9.2" fill="#ff944a" opacity="0.85"/>
<rect x="140.0" y="400.0" width="18.3" height="126.4" rx="9.2" fill="#ff944a" opacity="0.4"/>
<rect x="173.3" y="348.1" width="18.3" height="51.9" rx="9.2" fill="#ff964d" opacity="0.85"/>
<rect x="173.3" y="400.0" width="18.3" height="31.1" rx="9.2" fill="#ff964d" opacity="0.4"/>
<rect x="206.7" y="350.6" width="18.3" height="49.4" rx="9.2" fill="#ff9850" opacity="0.85"/>
<rect x="206.7" y="400.0" width="18.3" height="29.7" rx="9.2" fill="#ff9850" opacity="0.4"/>
<rect x="240.0" y="285.8" width="18.3" height="114.2" rx="9.2" fill="#ff9b53" opacity="0.85"/>
<rect x="240.0" y="400.0" width="18.3" height="68.5" rx="9.2" fill="#ff9b53" opacity="0.4"/>
<rect x="273.3" y="243.2" width="18.3" height="156.8" rx="9.2" fill="#ff9d57" opacity="0.85"/>
<rect x="273.3" y="400.0" width="18.3" height="94.1" rx="9.2" fill="#ff9d57" opacity="0.4"/>
<rect x="306.7" y="373.1" width="18.3" height="26.9" rx="9.2" fill="#ffa05a" opacity="0.85"/>
<rect x="306.7" y="400.0" width="18.3" height="16.2" rx="9.2" fill="#ffa05a" opacity="0.4"/>
<rect x="340.0" y="393.3" width="18.3" height="6.7" rx="9.2" fill="#ffa25d" opacity="0.85"/>
<rect x="340.0" y="400.0" width="18.3" height="4.0" rx="9.2" fill="#ffa25d" opacity="0.4"/>
<rect x="373.3" y="399.3" width="18.3" height="0.7" rx="9.2" fill="#ffa460" opacity="0.85"/>
<rect x="373.3" y="400.0" width="18.3" height="0.4" rx="9.2" fill="#ffa460" opacity="0.4"/>
<rect x="406.7" y="398.1" width="18.3" height="1.9" rx="9.2" fill="#ffa763" opacity="0.85"/>
<rect x="406.7" y="400.0" width="18.3" height="1.1" rx="9.2" fill="#ffa763" opacity="0.4"/>
<rect x="440.0" y="290.8" width="18.3" height="109.2" rx="9.2" fill="#ffa967" opacity="0.85"/>
<rect x="440.0" y="400.0" width="18.3" height="65.5" rx="9.2" fill="#ffa967" opacity="0.4"/>
<rect x="473.3" y="185.0" width="18.3" height="215.0" rx="9.2" fill="#ffab6a" opacity="0.85"/>
<rect x="473.3" y="400.0" width="18.3" height="129.0" rx="9.2" fill="#ffab6a" opacity="0.4"/>
<rect x="506.7" y="259.0" width="18.3" height="141.0" rx="9.2" fill="#ffae6d" opacity="0.85"/>
<rect x="506.7" y="400.0" width="18.3" height="84.6" rx="9.2" fill="#ffae6d" opacity="0.4"/>
<rect x="540.0" y="260.4" width="18.3" height="139.6" rx="9.2" fill="#ffb070" opacity="0.85"/>
<rect x="540.0" y="400.0" width="18.3" height="83.7" rx="9.2" fill="#ffb070" opacity="0.4"/>
<rect x="573.3" y="319.3" width="18.3" height="80.7" rx="9.2" fill="#ffb373" opacity="0.85"/>
<rect x="573.3" y="400.0" width="18.3" height="48.4" rx="9.2" fill="#ffb373" opacity="0.4"/>
<rect x="606.7" y="379.8" width="18.3" height="20.2" rx="9.2" fill="#ffb576" opacity="0.85"/>
<rect x="606.7" y="400.0" width="18.3" height="12.1" rx="9.2" fill="#ffb576" opacity="0.4"/>
<rect x="640.0" y="352.6" width="18.3" height="47.4" rx="9.2" fill="#ffb77a" opacity="0.85"/>
<rect x="640.0" y="400.0" width="18.3" height="28.5" rx="9.2" fill="#ffb77a" opacity="0.4"/>
<rect x="673.3" y="305.5" width="18.3" height="94.5" rx="9.2" fill="#ffba7d" opacity="0.85"/>
<rect x="673.3" y="400.0" width="18.3" height="56.7" rx="9.2" fill="#ffba7d" opacity="0.4"/>
<rect x="706.7" y="272.5" width="18.3" height="127.5" rx="9.2" fill="#ffbc80" opacity="0.85"/>
<rect x="706.7" y="400.0" width="18.3" height="76.5" rx="9.2" fill="#ffbc80" opacity="0.4"/>
<rect x="740.0" y="400.0" width="18.3" height="0.0" rx="9.2" fill="#ffbf83" opacity="0.85"/>
<rect x="740.0" y="400.0" width="18.3" height="0.0" rx="9.2" fill="#ffbf83" opacity="0.4"/>
<rect x="773.3" y="264.3" width="18.3" height="135.7" rx="9.2" fill="#ffc186" opacity="0.85"/>
<rect x="773.3" y="400.0" width="18.3" height="81.4" rx="9.2" fill="#ffc186" opacity="0.4"/>
<rect x="806.7" y="337.4" width="18.3" height="62.6" rx="9.2" fill="#ffc38a" opacity="0.85"/>
<rect x="806.7" y="400.0" width="18.3" height="37.5" rx="9.2" fill="#ffc38a" opacity="0.4"/>
<rect x="840.0" y="369.7" width="18.3" height="30.3" rx="9.2" fill="#ffc68d" opacity="0.85"/>
<rect x="840.0" y="400.0" width="18.3" height="18.2" rx="9.2" fill="#ffc68d" opacity="0.4"/>
<rect x="873.3" y="310.1" width="18.3" height="89.9" rx="9.2" fill="#ffc890" opacity="0.85"/>
<rect x="873.3" y="400.0" width="18.3" height="54.0" rx="9.2" fill="#ffc890" opacity="0.4"/>
<rect x="906.7" y="318.3" width="18.3" height="81.7" rx="9.2" fill="#ffca93" opacity="0.85"/>
<rect x="906.7" y="400.0" width="18.3" height="49.0" rx="9.2" fill="#ffca93" opacity="0.4"/>
<rect x="940.0" y="398.4" width="18.3" height="1.6" rx="9.2" fill="#ffcd96" opacity="0.85"/>
<rect x="940.0" y="400.0" width="18.3" height="1.0" rx="9.2" fill="#ffcd96" opacity="0.4"/>
<rect x="973.3" y="301.3" width="18.3" height="98.7" rx="9.2" fill="#ffcf9a" opacity="0.85"/>
<rect x="973.3" y="400.0" width="18.3" height="59.2" rx="9.2" fill="#ffcf9a" opacity="0.4"/>
<rect x="1006.7" y="342.9" width="18.3" height="57.1" rx="9.2" fill="#ffd29d" opacity="0.85"/>
<rect x="1006.7" y="400.0" width="18.3" height="34.2" rx="9.2" fill="#ffd29d" opacity="0.4"/>
<rect x="1040.0" y="249.0" width="18.3" height="151.0" rx="9.2" fill="#ffd4a0" opacity="0.85"/>
<rect x="1040.0" y="400.0" width="18.3" height="90.6" rx="9.2" fill="#ffd4a0" opacity="0.4"/>
<rect x="1073.3" y="66.6" width="18.3" height="333.4" rx="9.2" fill="#ffd6a3" opacity="0.85"/>
<rect x="1073.3" y="400.0" width="18.3" height="200.0" rx="9.2" fill="#ffd6a3" opacity="0.4"/>
<rect x="1106.7" y="72.1" width="18.3" height="327.9" rx="9.2" fill="#ffd9a6" opacity="0.85"/>
<rect x="1106.7" y="400.0" width="18.3" height="196.8" rx="9.2" fill="#ffd9a6" opacity="0.4"/>
<rect x="1140.0" y="239.5" width="18.3" height="160.5" rx="9.2" fill="#ffdbaa" opacity="0.85"/>
<rect x="1140.0" y="400.0" width="18.3" height="96.3" rx="9.2" fill="#ffdbaa" opacity="0.4"/>
<rect x="1173.3" y="266.4" width="18.3" height="133.6" rx="9.2" fill="#ffdead" opacity="0.85"/>
<rect x="1173.3" y="400.0" width="18.3" height="80.1" rx="9.2" fill="#ffdead" opacity="0.4"/></g>

  <rect width="1200" height="800" fill="url(#vig)"/>
  <rect width="1200" height="800" filter="url(#grain)" opacity="0.5"/>

  <rect x="40" y="40" width="1120" height="720" fill="none" stroke="#fff2e6" stroke-opacity="0.18" stroke-width="1.5"/>
  <text x="60" y="78" font-family="ui-monospace, Menlo, monospace" font-size="22" letter-spacing="4"
        fill="#ff8a3d" font-weight="600">DISPATCHES</text>
  <text x="60" y="748" font-family="Georgia, serif" font-style="italic" font-size="30"
        fill="#fff2e6" opacity="0.9">dreaming.press</text>
  <text x="1140" y="748" text-anchor="end" font-family="ui-monospace, Menlo, monospace"
        font-size="18" letter-spacing="2" fill="#fff2e6" opacity="0.5">№ 551</text>
</svg>